<?xml version="1.0" encoding="UTF-8" standalone="no"?>
<!-- Created with Inkscape (http://www.inkscape.org/) -->

<svg
   xmlns:dc="http://purl.org/dc/elements/1.1/"
   xmlns:cc="http://creativecommons.org/ns#"
   xmlns:rdf="http://www.w3.org/1999/02/22-rdf-syntax-ns#"
   xmlns:svg="http://www.w3.org/2000/svg"
   xmlns="http://www.w3.org/2000/svg"
   xmlns:xlink="http://www.w3.org/1999/xlink"
   xmlns:sodipodi="http://sodipodi.sourceforge.net/DTD/sodipodi-0.dtd"
   xmlns:inkscape="http://www.inkscape.org/namespaces/inkscape"
   width="247.36378"
   height="72.370644"
   id="svg6899"
   version="1.1"
   inkscape:version="0.48.3.1 r9886"
   sodipodi:docname="stratosphere.svg">
  <defs
     id="defs6901">
    <linearGradient
       inkscape:collect="always"
       xlink:href="#linearGradient4985-8-5-0-99-5"
       id="linearGradient5034"
       gradientUnits="userSpaceOnUse"
       gradientTransform="matrix(0.83061455,0,0,0.78666667,-144.29273,75.490313)"
       x1="-19.861755"
       y1="634.53467"
       x2="-20.08514"
       y2="568.72498" />
    <linearGradient
       id="linearGradient4985-8-5-0-99-5">
      <stop
         style="stop-color:#2c5d99;stop-opacity:1;"
         offset="0"
         id="stop4987-8-6-3-5-4" />
      <stop
         style="stop-color:#3b7bcb;stop-opacity:1;"
         offset="1"
         id="stop4989-6-54-3-44-9" />
    </linearGradient>
  </defs>
  <sodipodi:namedview
     id="base"
     pagecolor="#ffffff"
     bordercolor="#666666"
     borderopacity="1.0"
     inkscape:pageopacity="0.0"
     inkscape:pageshadow="2"
     inkscape:zoom="2.8"
     inkscape:cx="139.3097"
     inkscape:cy="-33.788857"
     inkscape:document-units="px"
     inkscape:current-layer="g4988-3-9-9-0"
     showgrid="false"
     fit-margin-top="0"
     fit-margin-left="0"
     fit-margin-right="0"
     fit-margin-bottom="0"
     inkscape:window-width="1396"
     inkscape:window-height="1011"
     inkscape:window-x="0"
     inkscape:window-y="18"
     inkscape:window-maximized="0" />
  <metadata
     id="metadata6904">
    <rdf:RDF>
      <cc:Work
         rdf:about="">
        <dc:format>image/svg+xml</dc:format>
        <dc:type
           rdf:resource="http://purl.org/dc/dcmitype/StillImage" />
        <dc:title></dc:title>
      </cc:Work>
    </rdf:RDF>
  </metadata>
  <g
     inkscape:label="Layer 1"
     inkscape:groupmode="layer"
     id="layer1"
     transform="translate(-336.31811,-427.60543)">
    <g
       style="display:inline"
       id="g4988-3-9-9-0"
       transform="matrix(1.3092069,0,0,1.3092069,317.62759,-739.34402)">
      <g
         transform="matrix(0.48857502,0,0,0.48857502,85.648829,512.16591)"
         id="g4072-5-5-1-7">
        <g
           id="g5512">
          <g
             id="g5520"
             transform="translate(0,1.3994376)">
            <g
               style="font-size:16px;font-style:normal;font-variant:normal;font-weight:normal;font-stretch:normal;text-align:center;line-height:125%;letter-spacing:0px;word-spacing:0px;text-anchor:middle;fill:#7f7f7f;fill-opacity:1;stroke:none;font-family:Arial;-inkscape-font-specification:Arial"
               id="text3269-9-8-3-0">
              <path
                 d="m -93.369384,807.88397 0,-18.83965 3.924928,0 c 1.381224,2e-5 2.397843,0.0729 3.049862,0.21876 0.660579,0.13729 1.226798,0.3775 1.698657,0.72065 0.600524,0.44613 1.063794,1.02092 1.389811,1.72439 0.334571,0.69492 0.501863,1.45846 0.501876,2.29061 -1.3e-5,0.99519 -0.240227,1.82736 -0.720642,2.49652 -0.471861,0.66918 -1.162476,1.13673 -2.071848,1.40268 1.115269,0.17159 1.994624,0.67346 2.638067,1.50562 0.651996,0.8236 0.978001,1.86596 0.978015,3.12708 -1.4e-5,0.75496 -0.137279,1.4756 -0.411796,2.16193 -0.274544,0.68632 -0.656312,1.27399 -1.145307,1.763 -0.531914,0.52332 -1.188213,0.89222 -1.968898,1.1067 -0.780706,0.21447 -2.093303,0.32171 -3.937797,0.32171 l -3.924928,0 m 2.187665,-8.82787 0,6.87184 1.737263,0 c 1.192484,0 2.050391,-0.0472 2.573723,-0.14155 0.531894,-0.0944 0.956558,-0.25737 1.273993,-0.48901 0.386048,-0.27453 0.690605,-0.6563 0.913672,-1.14531 0.223045,-0.489 0.334573,-1.02948 0.334584,-1.62144 -1.1e-5,-0.68632 -0.132987,-1.28257 -0.398927,-1.78874 -0.265962,-0.50616 -0.65202,-0.9008 -1.158176,-1.18391 -0.300277,-0.18015 -0.647729,-0.30884 -1.042358,-0.38606 -0.394645,-0.0772 -1.008049,-0.11581 -1.840212,-0.11582 l -0.656299,0 -1.737263,0 m 0,-8.06862 0,6.30562 1.737263,0 c 1.595701,10e-6 2.719559,-0.23162 3.371577,-0.6949 0.652,-0.46326 0.978005,-1.24396 0.978015,-2.34209 -1e-5,-1.20964 -0.304567,-2.05468 -0.913672,-2.53512 -0.600544,-0.48899 -1.74585,-0.73349 -3.43592,-0.73351 l -1.737263,0"
                 style="font-size:26.35492706000000140px;font-family:Futura Bk BT;-inkscape-font-specification:Futura Bk BT;fill:#7f7f7f;fill-opacity:1"
                 id="path7094" />
              <path
                 d="m -79.123826,790.43413 c -2e-6,-0.4032 0.141553,-0.74636 0.424664,-1.02949 0.291687,-0.29167 0.643428,-0.43752 1.055227,-0.43753 0.403213,10e-6 0.746376,0.14586 1.029489,0.43753 0.291684,0.29171 0.437529,0.64345 0.437533,1.05523 -4e-6,0.40323 -0.141559,0.74639 -0.424664,1.02948 -0.283114,0.28313 -0.630566,0.42468 -1.042358,0.42467 -0.411799,10e-6 -0.76354,-0.14154 -1.055227,-0.42467 -0.283111,-0.28309 -0.424666,-0.63483 -0.424664,-1.05522 m 0.476139,17.44984 0,-11.77478 2.033241,0 0,11.77478 -2.033241,0"
                 style="font-size:26.35492706000000140px;font-family:Futura Bk BT;-inkscape-font-specification:Futura Bk BT;fill:#7f7f7f;fill-opacity:1"
                 id="path7096" />
              <path
                 d="m -63.359771,802.02875 c -1.1e-5,-1.32117 -0.360332,-2.38497 -1.080964,-3.19142 -0.720652,-0.80642 -1.668639,-1.20964 -2.843964,-1.20965 -1.209656,10e-6 -2.153354,0.3732 -2.831096,1.11957 -0.677751,0.74639 -1.016624,1.78875 -1.01662,3.12708 -4e-6,1.42413 0.338869,2.52225 1.01662,3.29436 0.686321,0.77212 1.655756,1.15818 2.908308,1.15818 1.201062,0 2.14047,-0.37748 2.818227,-1.13244 0.686315,-0.76353 1.029478,-1.81876 1.029489,-3.16568 m 1.95603,-5.91956 0,11.56888 c -1.3e-5,1.27829 -0.0858,2.18767 -0.257373,2.72815 -0.171594,0.54048 -0.454703,1.0252 -0.849328,1.45415 -0.549073,0.59196 -1.22253,1.03378 -2.020373,1.32547 -0.789284,0.29169 -1.698666,0.43753 -2.728147,0.43754 -1.784453,-10e-6 -3.178552,-0.40752 -4.1823,-1.22252 -0.995175,-0.81502 -1.514209,-1.9689 -1.557103,-3.46166 l 2.264877,0 0,0.15442 c -4e-6,0.88365 0.304553,1.56568 0.913671,2.04611 0.60911,0.48043 1.471306,0.72064 2.586592,0.72064 0.806426,0 1.492751,-0.13297 2.058979,-0.39892 0.574788,-0.25738 1.012321,-0.64344 1.312599,-1.15818 0.18015,-0.29169 0.308836,-0.63056 0.386058,-1.01662 0.0772,-0.38606 0.115807,-0.93941 0.115818,-1.66005 l 0,-0.92654 0,-1.05523 c -0.454702,0.84075 -1.050947,1.48847 -1.788738,1.94316 -0.737809,0.44612 -1.565689,0.66917 -2.483643,0.66917 -1.690083,0 -3.054155,-0.5748 -4.09222,-1.72439 -1.029491,-1.1496 -1.544235,-2.67667 -1.544234,-4.58123 -10e-7,-1.92171 0.501875,-3.44449 1.505628,-4.56836 1.003749,-1.13243 2.346373,-1.69864 4.027877,-1.69866 0.978008,2e-5 1.835914,0.22307 2.573724,0.66917 0.73779,0.43755 1.321167,1.08527 1.750132,1.94316 l 0,-2.18766 2.007504,0"
                 style="font-size:26.35492706000000140px;font-family:Futura Bk BT;-inkscape-font-specification:Futura Bk BT;fill:#7f7f7f;fill-opacity:1"
                 id="path7098" />
              <path
                 d="m -47.093838,805.77352 1.428416,0 c 2.316343,0 3.920629,-0.0987 4.812863,-0.29598 0.892213,-0.20589 1.634302,-0.55335 2.226271,-1.04236 0.772103,-0.64342 1.359769,-1.4713 1.763,-2.48364 0.403202,-1.0209 0.60481,-2.18766 0.604825,-3.50026 -1.5e-5,-1.32117 -0.201623,-2.47935 -0.604825,-3.47453 -0.394652,-1.00374 -0.982318,-1.83162 -1.763,-2.48364 -0.591969,-0.49757 -1.346927,-0.84932 -2.264877,-1.05523 -0.909392,-0.21446 -2.500809,-0.3217 -4.774257,-0.32172 l -1.428416,0 0,14.65736 m -2.264877,2.11045 0,-18.83965 3.616082,0 c 2.676663,2e-5 4.559769,0.13728 5.649322,0.41179 1.09811,0.26597 2.058966,0.71637 2.882571,1.35121 1.080948,0.83218 1.900249,1.89599 2.457905,3.19141 0.557623,1.29546 0.836443,2.78822 0.836461,4.47828 -1.8e-5,1.68151 -0.278838,3.16998 -0.836461,4.46541 -0.549077,1.28687 -1.368378,2.34638 -2.457905,3.17855 -0.823605,0.63485 -1.763014,1.08955 -2.818227,1.36408 -1.046658,0.26595 -2.680971,0.39892 -4.902943,0.39892 l -0.810723,0 -3.616082,0"
                 style="font-size:26.35492706000000140px;font-family:Futura Bk BT;-inkscape-font-specification:Futura Bk BT;fill:#7f7f7f;fill-opacity:1"
                 id="path7100" />
              <path
                 d="m -21.459554,802.10596 c -1.1e-5,-1.32975 -0.364621,-2.39784 -1.093832,-3.20428 -0.720652,-0.815 -1.66435,-1.22251 -2.831096,-1.22252 -1.209656,10e-6 -2.153354,0.3732 -2.831096,1.11957 -0.67775,0.74639 -1.016624,1.78874 -1.01662,3.12707 -4e-6,1.42413 0.33887,2.52225 1.01662,3.29437 0.686322,0.77212 1.655756,1.15818 2.908308,1.15817 1.201062,10e-6 2.14047,-0.37318 2.818227,-1.11957 0.686315,-0.75495 1.029478,-1.80589 1.029489,-3.15281 m 1.95603,-5.99677 0,11.77478 -1.95603,0 0,-2.13619 c -0.47186,0.85791 -1.076684,1.51421 -1.814475,1.9689 -0.72923,0.44611 -1.548531,0.66917 -2.457906,0.66917 -1.690083,0 -3.054155,-0.57909 -4.09222,-1.73727 -1.029491,-1.16675 -1.544235,-2.70669 -1.544234,-4.61983 -1e-6,-1.93886 0.501875,-3.47881 1.505628,-4.61983 1.003749,-1.14959 2.346373,-1.72438 4.027877,-1.7244 0.986587,2e-5 1.840204,0.22307 2.560855,0.66917 0.729212,0.43755 1.316878,1.09384 1.763001,1.9689 l 0,-2.2134 2.007504,0"
                 style="font-size:26.35492706000000140px;font-family:Futura Bk BT;-inkscape-font-specification:Futura Bk BT;fill:#7f7f7f;fill-opacity:1"
                 id="path7102" />
              <path
                 d="m -15.179674,797.76924 -2.161927,0 0,-1.66005 2.161927,0 0,-4.74852 2.058979,0 0,4.74852 2.161927,0 0,1.66005 -2.161927,0 0,10.11473 -2.058979,0 0,-10.11473"
                 style="font-size:26.35492706000000140px;font-family:Futura Bk BT;-inkscape-font-specification:Futura Bk BT;fill:#7f7f7f;fill-opacity:1"
                 id="path7104" />
              <path
                 d="m 0.36561853,802.10596 c -1.107e-5,-1.32975 -0.36462151281,-2.39784 -1.09383243,-3.20428 -0.7206518,-0.815 -1.6643494,-1.22251 -2.8310957,-1.22252 -1.2096559,10e-6 -2.1533535,0.3732 -2.8310957,1.11957 -0.6777507,0.74639 -1.016624,1.78874 -1.0166207,3.12707 -3.3e-6,1.42413 0.33887,2.52225 1.0166207,3.29437 0.6863213,0.77212 1.6557561,1.15818 2.9083074,1.15817 1.2010625,10e-6 2.1404706,-0.37318 2.81822709,-1.11957 0.6863155,-0.75495 1.02947827,-1.80589 1.02948934,-3.15281 m 1.95602977,-5.99677 0,11.77478 -1.95602977,0 0,-2.13619 c -0.47185988,0.85791 -1.07668426,1.51421 -1.81447493,1.9689 -0.7292302,0.44611 -1.5485313,0.66917 -2.4579058,0.66917 -1.6900835,0 -3.0541555,-0.57909 -4.0922201,-1.73727 -1.0294911,-1.16675 -1.5442352,-2.70669 -1.5442341,-4.61983 -1.1e-6,-1.93886 0.5018744,-3.47881 1.5056282,-4.61983 1.0037484,-1.14959 2.3463728,-1.72438 4.027877,-1.7244 0.9865863,2e-5 1.8402037,0.22307 2.5608548,0.66917 0.7292116,0.43755 1.31687784,1.09384 1.76300046,1.9689 l 0,-2.2134 2.00750424,0"
                 style="font-size:26.35492706000000140px;font-family:Futura Bk BT;-inkscape-font-specification:Futura Bk BT;fill:#7f7f7f;fill-opacity:1"
                 id="path7106" />
              <path
                 d="m 14.212252,807.88397 0,-19.94635 2.058979,0 0,19.94635 -2.058979,0"
                 style="font-size:26.35492706000000140px;font-family:Futura Bk BT;-inkscape-font-specification:Futura Bk BT;fill:#7f7f7f;fill-opacity:1"
                 id="path7108" />
              <path
                 d="m 21.676052,802.02875 c -4e-6,1.24397 0.416081,2.2992 1.248255,3.16568 0.832166,0.85791 1.840206,1.28686 3.024125,1.28686 1.175325,0 2.174787,-0.42895 2.998388,-1.28686 0.82358,-0.86648 1.235375,-1.92171 1.235387,-3.16568 -1.2e-5,-1.24396 -0.411807,-2.29489 -1.235387,-3.15281 -0.823601,-0.86648 -1.823063,-1.29972 -2.998388,-1.29973 -1.192498,1e-5 -2.204828,0.43325 -3.036993,1.29973 -0.823595,0.85792 -1.235391,1.90885 -1.235387,3.15281 m -2.136191,0 c -10e-7,-0.86648 0.158712,-1.68149 0.476139,-2.44504 0.317424,-0.7721 0.780694,-1.45843 1.389811,-2.05897 0.609111,-0.60053 1.299726,-1.05522 2.071847,-1.36408 0.772111,-0.31741 1.595702,-0.47612 2.470774,-0.47614 0.8579,2e-5 1.668622,0.15873 2.432169,0.47614 0.772106,0.31744 1.4713,0.78071 2.097584,1.38981 0.609102,0.59197 1.072372,1.27401 1.389811,2.04611 0.317412,0.76355 0.476125,1.57427 0.476139,2.43217 -1.4e-5,0.85791 -0.158727,1.66864 -0.476139,2.43217 -0.317439,0.75496 -0.780709,1.42842 -1.389811,2.02037 -0.626284,0.6177 -1.329767,1.08955 -2.110453,1.41555 -0.772126,0.32601 -1.578558,0.48901 -2.4193,0.48901 -0.866493,0 -1.690084,-0.163 -2.470774,-0.48901 -0.772121,-0.31742 -1.462736,-0.7764 -2.071847,-1.37694 -0.609117,-0.61769 -1.072387,-1.30402 -1.389811,-2.05898 -0.317427,-0.75495 -0.47614,-1.56568 -0.476139,-2.43217"
                 style="font-size:26.35492706000000140px;font-family:Futura Bk BT;-inkscape-font-specification:Futura Bk BT;fill:#7f7f7f;fill-opacity:1"
                 id="path7110" />
              <path
                 d="m 36.655124,802.02875 c -3e-6,1.24397 0.416082,2.2992 1.248256,3.16568 0.832165,0.85791 1.840206,1.28686 3.024125,1.28686 1.175325,0 2.174786,-0.42895 2.998388,-1.28686 0.82358,-0.86648 1.235375,-1.92171 1.235387,-3.16568 -1.2e-5,-1.24396 -0.411807,-2.29489 -1.235387,-3.15281 -0.823602,-0.86648 -1.823063,-1.29972 -2.998388,-1.29973 -1.192498,1e-5 -2.204828,0.43325 -3.036994,1.29973 -0.823595,0.85792 -1.23539,1.90885 -1.235387,3.15281 m -2.13619,0 c -1e-6,-0.86648 0.158711,-1.68149 0.476139,-2.44504 0.317424,-0.7721 0.780693,-1.45843 1.38981,-2.05897 0.609111,-0.60053 1.299726,-1.05522 2.071847,-1.36408 0.772112,-0.31741 1.595702,-0.47612 2.470775,-0.47614 0.857899,2e-5 1.668621,0.15873 2.432168,0.47614 0.772107,0.31744 1.471301,0.78071 2.097585,1.38981 0.609102,0.59197 1.072372,1.27401 1.389811,2.04611 0.317412,0.76355 0.476124,1.57427 0.476138,2.43217 -1.4e-5,0.85791 -0.158726,1.66864 -0.476138,2.43217 -0.317439,0.75496 -0.780709,1.42842 -1.389811,2.02037 -0.626284,0.6177 -1.329768,1.08955 -2.110453,1.41555 -0.772126,0.32601 -1.578559,0.48901 -2.4193,0.48901 -0.866494,0 -1.690084,-0.163 -2.470775,-0.48901 -0.772121,-0.31742 -1.462736,-0.7764 -2.071847,-1.37694 -0.609117,-0.61769 -1.072386,-1.30402 -1.38981,-2.05898 -0.317428,-0.75495 -0.47614,-1.56568 -0.476139,-2.43217"
                 style="font-size:26.35492706000000140px;font-family:Futura Bk BT;-inkscape-font-specification:Futura Bk BT;fill:#7f7f7f;fill-opacity:1"
                 id="path7112" />
              <path
                 d="m 50.476014,807.88397 0,-19.94635 2.020372,0 0,13.51204 5.67506,-5.34047 2.689541,0 -5.880958,5.39195 6.408572,6.38283 -2.818228,0 -6.073987,-6.21554 0,6.21554 -2.020372,0"
                 style="font-size:26.35492706000000140px;font-family:Futura Bk BT;-inkscape-font-specification:Futura Bk BT;fill:#7f7f7f;fill-opacity:1"
                 id="path7114" />
              <path
                 d="m 62.225061,805.90221 1.724395,-1.15818 c 0.326002,0.62627 0.737797,1.09812 1.235387,1.41555 0.497582,0.30885 1.085249,0.46327 1.763001,0.46327 0.660582,0 1.192485,-0.163 1.595708,-0.48901 0.411788,-0.326 0.617686,-0.75496 0.617694,-1.28686 -8e-6,-0.41179 -0.141563,-0.75496 -0.424665,-1.02949 -0.274537,-0.27453 -0.750676,-0.52761 -1.428416,-0.75925 l -0.334584,-0.11582 c -2.865415,-0.98658 -4.298119,-2.22197 -4.298118,-3.70616 -10e-7,-1.04664 0.386057,-1.90025 1.158175,-2.56085 0.772114,-0.66058 1.775865,-0.99087 3.011257,-0.99089 1.020903,2e-5 1.895969,0.20591 2.625197,0.6177 0.729213,0.40322 1.252537,0.97802 1.569972,1.72439 l -1.634315,1.00375 c -0.240222,-0.54047 -0.596253,-0.95655 -1.068095,-1.24825 -0.463276,-0.29168 -1.003758,-0.43752 -1.621445,-0.43753 -0.591962,1e-5 -1.076679,0.1673 -1.454154,0.50187 -0.368904,0.32602 -0.553354,0.74639 -0.553351,1.26113 -3e-6,0.72065 0.780692,1.32547 2.342089,1.81447 0.291682,0.0944 0.523317,0.1673 0.694905,0.21877 1.278275,0.4118 2.166209,0.88365 2.663804,1.41554 0.506156,0.52333 0.759238,1.21824 0.759248,2.08472 -1e-5,1.11528 -0.398937,2.02037 -1.196781,2.71528 -0.789283,0.68632 -1.823061,1.02949 -3.101337,1.02949 -1.098126,0 -2.033245,-0.2059 -2.805359,-0.6177 -0.763539,-0.41179 -1.376943,-1.03377 -1.840212,-1.86594"
                 style="font-size:26.35492706000000140px;font-family:Futura Bk BT;-inkscape-font-specification:Futura Bk BT;fill:#7f7f7f;fill-opacity:1"
                 id="path7116" />
              <path
                 d="m 82.312971,797.76924 -2.161927,0 0,-1.66005 2.161927,0 0,-4.74852 2.058979,0 0,4.74852 2.161928,0 0,1.66005 -2.161928,0 0,10.11473 -2.058979,0 0,-10.11473"
                 style="font-size:26.35492706000000140px;font-family:Futura Bk BT;-inkscape-font-specification:Futura Bk BT;fill:#7f7f7f;fill-opacity:1"
                 id="path7118" />
              <path
                 d="m 88.477035,790.43413 c -2e-6,-0.4032 0.141553,-0.74636 0.424664,-1.02949 0.291686,-0.29167 0.643428,-0.43752 1.055226,-0.43753 0.403214,10e-6 0.746376,0.14586 1.02949,0.43753 0.291684,0.29171 0.437528,0.64345 0.437533,1.05523 -5e-6,0.40323 -0.141559,0.74639 -0.424665,1.02948 -0.283113,0.28313 -0.630565,0.42468 -1.042358,0.42467 -0.411798,10e-6 -0.76354,-0.14154 -1.055226,-0.42467 -0.283111,-0.28309 -0.424666,-0.63483 -0.424664,-1.05522 m 0.476138,17.44984 0,-11.77478 2.033242,0 0,11.77478 -2.033242,0"
                 style="font-size:26.35492706000000140px;font-family:Futura Bk BT;-inkscape-font-specification:Futura Bk BT;fill:#7f7f7f;fill-opacity:1"
                 id="path7120" />
              <path
                 d="m 95.233067,807.88397 0,-11.77478 1.968899,0 0,1.81447 c 0.506161,-0.75495 1.115275,-1.31687 1.827343,-1.68579 0.712057,-0.36888 1.535651,-0.55333 2.470771,-0.55335 1.3898,2e-5 2.47506,0.36892 3.25576,1.1067 0.78069,0.73782 1.17104,1.76301 1.17105,3.0756 l 0,8.01715 -2.05898,0 0,-6.93618 c -10e-6,-1.19249 -0.25309,-2.07613 -0.75925,-2.65094 -0.4976,-0.58336 -1.26971,-0.87505 -2.31635,-0.87506 -0.60054,10e-6 -1.149603,0.11154 -1.647183,0.33458 -0.489013,0.21449 -0.896519,0.52333 -1.222519,0.92654 -0.248797,0.30886 -0.428958,0.6606 -0.540482,1.05523 -0.102953,0.39464 -0.154427,1.08097 -0.154423,2.05898 l 0,6.08685 -1.994636,0"
                 style="font-size:26.35492706000000140px;font-family:Futura Bk BT;-inkscape-font-specification:Futura Bk BT;fill:#7f7f7f;fill-opacity:1"
                 id="path7122" />
              <path
                 d="m 109.42714,813.62338 3.19142,-6.89758 -4.61984,-10.61661 2.32922,0 3.42306,8.45468 3.62895,-8.45468 2.2134,0 -7.90133,17.51419 -2.26488,0"
                 style="font-size:26.35492706000000140px;font-family:Futura Bk BT;-inkscape-font-specification:Futura Bk BT;fill:#7f7f7f;fill-opacity:1"
                 id="path7124" />
              <path
                 d="m 129.78529,807.88397 0,-10.11473 -2.26487,0 0,-1.66005 2.26487,0 0,-3.41019 c 0,-1.95601 0.2445,-3.27718 0.73351,-3.96353 0.49759,-0.69488 1.38552,-1.04234 2.66381,-1.04236 0.31742,2e-5 0.61768,0.0215 0.9008,0.0643 0.29168,0.0429 0.5705,0.11154 0.83646,0.20589 l 0,2.08472 c -0.25738,-0.14583 -0.51904,-0.25307 -0.78498,-0.32172 -0.25738,-0.0686 -0.52333,-0.10293 -0.79786,-0.10294 -0.59196,10e-6 -0.99947,0.18875 -1.22252,0.56621 -0.22306,0.3775 -0.33459,1.30404 -0.33458,2.77963 l 0,3.13994 3.13994,0 0,1.66005 -3.08847,0 0,10.11473 -2.04611,0"
                 style="font-size:26.35492706000000140px;font-family:Futura Bk BT;-inkscape-font-specification:Futura Bk BT;fill:#7f7f7f;fill-opacity:1"
                 id="path7126" />
              <path
                 d="m 136.90164,807.88397 0,-11.77478 1.78874,0 0,2.44504 c 0.54048,-1.0209 1.11528,-1.75013 1.72439,-2.18767 0.60911,-0.43752 1.3512,-0.65629 2.22628,-0.6563 0.2402,1e-5 0.47184,0.0215 0.6949,0.0643 0.22305,0.0343 0.4461,0.0901 0.66917,0.1673 l -0.66917,1.81447 c -0.23164,-0.0772 -0.45041,-0.13296 -0.6563,-0.16729 -0.2059,-0.0429 -0.40322,-0.0643 -0.59196,-0.0643 -1.06381,1e-5 -1.86166,0.38606 -2.39356,1.15817 -0.53191,0.76355 -0.79786,1.91743 -0.79785,3.46166 l 0,5.7394 -1.99464,0"
                 style="font-size:26.35492706000000140px;font-family:Futura Bk BT;-inkscape-font-specification:Futura Bk BT;fill:#7f7f7f;fill-opacity:1"
                 id="path7128" />
              <path
                 d="m 147.32521,802.02875 c 0,1.24397 0.41609,2.2992 1.24826,3.16568 0.83216,0.85791 1.84021,1.28686 3.02412,1.28686 1.17533,0 2.17479,-0.42895 2.99839,-1.28686 0.82358,-0.86648 1.23538,-1.92171 1.23539,-3.16568 -1e-5,-1.24396 -0.41181,-2.29489 -1.23539,-3.15281 -0.8236,-0.86648 -1.82306,-1.29972 -2.99839,-1.29973 -1.19249,1e-5 -2.20482,0.43325 -3.03699,1.29973 -0.82359,0.85792 -1.23539,1.90885 -1.23539,3.15281 m -2.13619,0 c 0,-0.86648 0.15872,-1.68149 0.47614,-2.44504 0.31743,-0.7721 0.7807,-1.45843 1.38981,-2.05897 0.60911,-0.60053 1.29973,-1.05522 2.07185,-1.36408 0.77211,-0.31741 1.5957,-0.47612 2.47077,-0.47614 0.8579,2e-5 1.66863,0.15873 2.43217,0.47614 0.77211,0.31744 1.4713,0.78071 2.09759,1.38981 0.6091,0.59197 1.07237,1.27401 1.38981,2.04611 0.31741,0.76355 0.47612,1.57427 0.47614,2.43217 -2e-5,0.85791 -0.15873,1.66864 -0.47614,2.43217 -0.31744,0.75496 -0.78071,1.42842 -1.38981,2.02037 -0.62629,0.6177 -1.32977,1.08955 -2.11046,1.41555 -0.77212,0.32601 -1.57855,0.48901 -2.4193,0.48901 -0.86649,0 -1.69008,-0.163 -2.47077,-0.48901 -0.77212,-0.31742 -1.46274,-0.7764 -2.07185,-1.37694 -0.60911,-0.61769 -1.07238,-1.30402 -1.38981,-2.05898 -0.31742,-0.75495 -0.47614,-1.56568 -0.47614,-2.43217"
                 style="font-size:26.35492706000000140px;font-family:Futura Bk BT;-inkscape-font-specification:Futura Bk BT;fill:#7f7f7f;fill-opacity:1"
                 id="path7130" />
              <path
                 d="m 177.515,807.88397 0,-6.93618 c -2e-5,-1.19249 -0.24023,-2.07613 -0.72064,-2.65094 -0.48045,-0.58336 -1.21825,-0.87505 -2.21341,-0.87506 -0.54049,10e-6 -1.04237,0.11154 -1.50562,0.33458 -0.45471,0.21449 -0.84077,0.52333 -1.15818,0.92654 -0.23165,0.30886 -0.39894,0.66918 -0.50188,1.08097 -0.10296,0.4118 -0.15443,1.08954 -0.15442,2.03324 l 0,6.08685 -1.94316,0 0,-6.93618 c -1e-5,-1.19249 -0.24022,-2.07613 -0.72064,-2.65094 -0.48044,-0.58336 -1.21824,-0.87505 -2.2134,-0.87506 -0.54049,10e-6 -1.04666,0.11154 -1.5185,0.33458 -0.46328,0.21449 -0.85362,0.52333 -1.17105,0.92654 -0.22306,0.30028 -0.38606,0.64773 -0.489,1.04236 -0.0944,0.39464 -0.14156,1.08526 -0.14156,2.07185 l 0,6.08685 -1.94316,0 0,-11.77478 1.9689,0 0,1.81447 c 0.489,-0.75495 1.07238,-1.31687 1.75013,-1.68579 0.67774,-0.36888 1.45844,-0.55333 2.34209,-0.55335 0.95227,2e-5 1.76299,0.20591 2.43217,0.6177 0.66916,0.40322 1.17532,0.99518 1.5185,1.77587 0.50615,-0.80643 1.10239,-1.40696 1.78873,-1.80161 0.69489,-0.39463 1.49704,-0.59194 2.40643,-0.59196 1.31259,2e-5 2.33778,0.36892 3.0756,1.1067 0.73778,0.73782 1.10668,1.76301 1.1067,3.0756 l 0,8.01715 -1.99463,0"
                 style="font-size:26.35492706000000140px;font-family:Futura Bk BT;-inkscape-font-specification:Futura Bk BT;fill:#7f7f7f;fill-opacity:1"
                 id="path7132" />
            </g>
            <g
               style="font-size:16px;font-style:normal;font-variant:normal;font-weight:normal;font-stretch:normal;text-align:center;line-height:125%;letter-spacing:0px;word-spacing:0px;text-anchor:middle;fill:#000000;fill-opacity:1;stroke:none;font-family:DejaVu Sans;-inkscape-font-specification:DejaVu Sans"
               id="text3269-4-4-5-73-2">
              <path
                 d="m -74.237261,836.52138 c 2.899704,1.23697 5.079567,2.87947 6.539597,4.92751 1.480251,2.04808 2.220391,4.47128 2.220421,7.2696 -3e-5,4.09613 -1.307948,7.40141 -3.923758,9.91585 -2.595585,2.49418 -6.042811,3.74126 -10.341688,3.74126 -3.508075,0 -6.448356,-0.89222 -8.820851,-2.67667 -2.37251,-1.80472 -3.974456,-4.35973 -4.805844,-7.66502 l 4.805844,-2.3725 c 0.648882,2.69696 1.713466,4.74502 3.193756,6.14418 1.500547,1.37889 3.376243,2.06834 5.627095,2.06834 2.656376,0 4.805822,-0.76042 6.448347,-2.28126 1.642479,-1.54111 2.46373,-3.53847 2.463755,-5.99209 -2.5e-5,-1.98722 -0.577943,-3.71083 -1.733754,-5.17085 -1.13558,-1.48026 -2.859193,-2.72735 -5.170844,-3.74126 l -5.414178,-2.31167 c -2.960571,-1.23692 -5.170851,-2.82873 -6.630847,-4.77542 -1.439729,-1.94664 -2.159591,-4.27859 -2.159587,-6.99585 -4e-6,-3.1633 1.176108,-5.77914 3.52834,-7.84752 2.352218,-2.06829 5.353332,-3.10246 9.003352,-3.1025 2.676653,4e-5 4.988322,0.56782 6.935014,1.70333 1.966923,1.1356 3.497897,2.80852 4.592926,5.01876 l -4.380009,2.79834 c -0.993635,-1.72357 -2.108914,-3.00108 -3.34584,-3.83251 -1.236966,-0.85162 -2.636134,-1.27746 -4.197508,-1.2775 -1.987241,4e-5 -3.619604,0.60838 -4.897094,1.82501 -1.257234,1.2167 -1.885846,2.76795 -1.885837,4.65376 -9e-6,1.5817 0.486658,2.95045 1.460003,4.10625 0.973324,1.15587 2.48402,2.1799 4.532093,3.07209 l 6.357096,2.79834"
                 style="font-family:Futura Bk BT;-inkscape-font-specification:Futura Bk BT"
                 id="path7162" />
              <path
                 d="m -58.207644,837.34263 -5.11001,0 0,-3.92375 5.11001,0 0,-11.22378 4.866677,0 0,11.22378 5.11001,0 0,3.92375 -5.11001,0 0,23.90755 -4.866677,0 0,-23.90755"
                 style="font-family:Futura Bk BT;-inkscape-font-specification:Futura Bk BT"
                 id="path7164" />
              <path
                 d="m -42.695112,861.25018 0,-27.8313 4.227925,0 0,5.77917 c 1.277492,-2.41303 2.636105,-4.13664 4.075842,-5.17084 1.43971,-1.03414 3.19374,-1.55122 5.262094,-1.55125 0.56776,3e-5 1.11526,0.0507 1.642503,0.15208 0.527203,0.0811 1.054426,0.21295 1.58167,0.39542 l -1.58167,4.28876 c -0.547521,-0.18248 -1.064604,-0.31428 -1.551253,-0.39542 -0.486686,-0.10136 -0.953075,-0.15206 -1.39917,-0.15208 -2.514464,2e-5 -4.400299,0.91252 -5.657511,2.7375 -1.257235,1.80475 -1.885847,4.53211 -1.885837,8.1821 l 0,13.56586 -4.714593,0"
                 style="font-family:Futura Bk BT;-inkscape-font-specification:Futura Bk BT"
                 id="path7166" />
              <path
                 d="m 0.43581181,847.59307 c -2.616e-5,-3.14304 -0.86183262,-5.66763 -2.58542191,-7.57376 -1.7033587,-1.92637 -3.9339166,-2.88957 -6.6916804,-2.88959 -2.8591865,2e-5 -5.0897445,0.88211 -6.6916805,2.64625 -1.601956,1.76419 -2.402929,4.22795 -2.402921,7.39127 -8e-6,3.36613 0.800965,5.96168 2.402921,7.78668 1.622214,1.82501 3.913605,2.73751 6.8741809,2.73751 2.8388748,0 5.0592937,-0.88208 6.6612636,-2.64626 1.62220019,-1.78444 2.43331215,-4.26847 2.43333831,-7.4521 m 4.62334279,-14.17419 0,27.8313 -4.62334279,0 0,-5.04917 c -1.1153051,2.02778 -2.54488991,3.57903 -4.28875881,4.65376 -1.7236348,1.05444 -3.6601646,1.58166 -5.8095952,1.58167 -3.9947428,-10e-6 -7.2189128,-1.36876 -9.6725198,-4.10626 -2.433342,-2.75778 -3.65001,-6.39765 -3.650007,-10.91961 -3e-6,-4.58277 1.186248,-8.22263 3.558757,-10.9196 2.372496,-2.7172 5.545972,-4.07582 9.520436,-4.07585 2.331931,3e-5 4.349572,0.52726 6.052929,1.58167 1.7235911,1.0342 3.11262031,2.58545 4.16709189,4.65376 l 0,-5.23167 4.74500971,0"
                 style="font-family:Futura Bk BT;-inkscape-font-specification:Futura Bk BT"
                 id="path7168" />
              <path
                 d="m 15.27917,837.34263 -5.11001,0 0,-3.92375 5.11001,0 0,-11.22378 4.866677,0 0,11.22378 5.110011,0 0,3.92375 -5.110011,0 0,23.90755 -4.866677,0 0,-23.90755"
                 style="font-family:Futura Bk BT;-inkscape-font-specification:Futura Bk BT"
                 id="path7170" />
              <path
                 d="m 33.52921,847.41057 c -8e-6,2.9403 0.983465,5.43447 2.950422,7.48252 1.966936,2.02778 4.349578,3.04167 7.147932,3.04167 2.77804,0 5.140404,-1.01389 7.087098,-3.04167 1.946643,-2.04805 2.919978,-4.54222 2.920006,-7.48252 -2.8e-5,-2.94027 -0.973363,-5.4243 -2.920006,-7.4521 -1.946694,-2.04803 -4.309058,-3.07206 -7.087098,-3.07209 -2.818632,3e-5 -5.211412,1.02406 -7.178348,3.07209 -1.94668,2.0278 -2.920014,4.51183 -2.920006,7.4521 m -5.049177,0 c -3e-6,-2.04804 0.375136,-3.97443 1.125419,-5.77918 0.750275,-1.82498 1.845276,-3.4472 3.285006,-4.86667 1.439717,-1.41943 3.07208,-2.49415 4.897094,-3.22418 1.82499,-0.75025 3.771658,-1.12539 5.840012,-1.12542 2.027762,3e-5 3.944014,0.37517 5.748761,1.12542 1.824979,0.75031 3.47762,1.84531 4.957927,3.28501 1.439696,1.39919 2.534697,3.01128 3.285007,4.83626 0.750247,1.80474 1.125386,3.721 1.125419,5.74876 -3.3e-5,2.0278 -0.375172,3.94405 -1.125419,5.74876 -0.75031,1.78446 -1.845311,3.37626 -3.285007,4.77543 -1.480307,1.46 -3.143087,2.57528 -4.988343,3.34584 -1.825026,0.77056 -3.731139,1.15583 -5.718345,1.15584 -2.048076,-10e-6 -3.994744,-0.38528 -5.840012,-1.15584 -1.825014,-0.75028 -3.457377,-1.83514 -4.897094,-3.25459 -1.43973,-1.46 -2.534731,-3.08222 -3.285006,-4.86668 -0.750283,-1.78444 -1.125422,-3.70069 -1.125419,-5.74876"
                 style="font-family:Futura Bk BT;-inkscape-font-specification:Futura Bk BT"
                 id="path7172" />
              <path
                 d="m 63.185523,856.56601 4.075842,-2.73751 c 0.77055,1.48029 1.743884,2.59557 2.920006,3.34584 1.176103,0.73001 2.565132,1.09501 4.167092,1.095 1.561377,10e-6 2.818601,-0.38527 3.771674,-1.15583 0.973317,-0.77055 1.459985,-1.78444 1.460003,-3.04167 -1.8e-5,-0.97333 -0.334602,-1.78444 -1.003752,-2.43334 -0.648907,-0.64888 -1.774325,-1.24708 -3.376257,-1.79459 l -0.790835,-0.27375 c -6.772798,-2.33194 -10.15919,-5.25194 -10.159187,-8.76002 -3e-6,-2.47387 0.912498,-4.49151 2.737505,-6.05293 1.824996,-1.56136 4.197499,-2.34206 7.117515,-2.34209 2.413045,3e-5 4.48138,0.4867 6.205012,1.46001 1.723594,0.95308 2.96054,2.31169 3.710841,4.07584 l -3.862924,2.3725 c -0.567797,-1.27748 -1.409326,-2.26095 -2.524589,-2.95042 -1.095017,-0.68942 -2.372519,-1.03414 -3.832508,-1.03417 -1.39918,3e-5 -2.544876,0.39544 -3.43709,1.18625 -0.871954,0.77058 -1.307927,1.7642 -1.307919,2.98084 -8e-6,1.70336 1.845272,3.13294 5.535844,4.28876 0.689432,0.22307 1.236933,0.39544 1.642504,0.51709 3.021377,0.97335 5.120129,2.08863 6.296263,3.34584 1.196369,1.23696 1.794564,2.87946 1.794587,4.92751 -2.3e-5,2.63612 -0.942941,4.77543 -2.828756,6.41793 -1.865578,1.62222 -4.309053,2.43333 -7.330432,2.43334 -2.595571,-10e-6 -4.805851,-0.48667 -6.630847,-1.46001 -1.80473,-0.97333 -3.254593,-2.44347 -4.349592,-4.41042"
                 style="font-family:Futura Bk BT;-inkscape-font-specification:Futura Bk BT;fill:#4d8ad3;fill-opacity:0.70980394"
                 id="path7174" />
              <path
                 d="m 96.157247,847.41057 c -9e-6,3.1228 0.861797,5.6271 2.585422,7.51293 1.723601,1.88585 4.004851,2.82876 6.843761,2.82876 2.77804,0 4.95791,-0.8618 6.5396,-2.58542 1.60192,-1.72361 2.40289,-4.11639 2.40292,-7.17835 -3e-5,-3.42694 -0.801,-6.11374 -2.40292,-8.06043 -1.58169,-1.94665 -3.79197,-2.91999 -6.63085,-2.92001 -2.89974,2e-5 -5.18099,0.92266 -6.843761,2.76792 -1.662792,1.8453 -2.494181,4.39017 -2.494172,7.6346 m -4.592926,27.40547 0,-41.39716 4.532093,0 0,5.23167 c 1.074714,-2.00748 2.494159,-3.54859 4.258346,-4.62334 1.76415,-1.0747 3.7311,-1.61206 5.90084,-1.61209 4.01499,3e-5 7.23916,1.36878 9.67252,4.10626 2.43331,2.73753 3.64998,6.36726 3.65001,10.88919 -3e-5,4.60308 -1.19642,8.26322 -3.58918,10.98044 -2.37253,2.69695 -5.55614,4.04542 -9.55085,4.04543 -2.29141,-10e-6 -4.28877,-0.51709 -5.99209,-1.55126 -1.703353,-1.05444 -3.092382,-2.61583 -4.167096,-4.68417 l 0,18.61503 -4.714593,0"
                 style="font-family:Futura Bk BT;-inkscape-font-specification:Futura Bk BT;fill:#4d8ad3;fill-opacity:0.70980394"
                 id="path7176" />
              <path
                 d="m 127.21273,861.25018 0,-47.14593 4.65376,0 0,23.60338 c 1.19638,-1.78442 2.6361,-3.11261 4.31917,-3.98459 1.68305,-0.87191 3.62972,-1.30789 5.84001,-1.30792 3.28499,3e-5 5.85013,0.87198 7.69544,2.61584 1.84525,1.74392 2.76789,4.16712 2.76792,7.2696 l 0,18.94962 -4.86668,0 0,-16.39461 c -2e-5,-2.8186 -0.59822,-4.90721 -1.79458,-6.26585 -1.17614,-1.37887 -3.00114,-2.06831 -5.47502,-2.06834 -1.41946,3e-5 -2.71724,0.26364 -3.89334,0.79084 -1.15585,0.50697 -2.11904,1.23697 -2.88959,2.19 -0.58806,0.73002 -1.0139,1.56141 -1.2775,2.49417 -0.24334,0.9328 -0.36501,2.55503 -0.365,4.86668 l 0,14.38711 -4.71459,0"
                 style="font-family:Futura Bk BT;-inkscape-font-specification:Futura Bk BT;fill:#4d8ad3;fill-opacity:0.70980394"
                 id="path7178" />
              <path
                 d="m 181.62826,844.1864 c -0.16224,-2.4536 -0.98349,-4.33943 -2.46375,-5.65751 -1.46002,-1.33832 -3.46753,-2.00748 -6.02251,-2.00751 -2.31169,3e-5 -4.23808,0.69961 -5.77918,2.09876 -1.54112,1.37891 -2.43335,3.23433 -2.67667,5.56626 l 16.94211,0 m 5.11001,3.86292 -22.05212,0 0,0.42584 c -1e-5,2.98085 0.85166,5.3939 2.555,7.23918 1.70333,1.82501 3.92375,2.73751 6.66127,2.7375 1.86554,1e-5 3.54859,-0.4968 5.04917,-1.49042 1.50054,-1.01388 2.82873,-2.53472 3.98459,-4.56251 l 3.61959,2.43334 c -1.39919,2.51446 -3.18364,4.41043 -5.35334,5.68793 -2.16975,1.2775 -4.6842,1.91625 -7.54335,1.91626 -4.23808,-10e-6 -7.66502,-1.39917 -10.28085,-4.19751 -2.61585,-2.79834 -3.92376,-6.46862 -3.92376,-11.01086 0,-4.35971 1.29778,-7.9286 3.89334,-10.70669 2.59555,-2.77803 5.93125,-4.16706 10.0071,-4.16709 4.11638,3e-5 7.37097,1.31809 9.76377,3.95418 2.41304,2.63613 3.61957,6.23544 3.61959,10.79793 l 0,0.94292"
                 style="font-family:Futura Bk BT;-inkscape-font-specification:Futura Bk BT;fill:#4d8ad3;fill-opacity:0.70980394"
                 id="path7180" />
              <path
                 d="m 193.94705,861.25018 0,-27.8313 4.22793,0 0,5.77917 c 1.27749,-2.41303 2.6361,-4.13664 4.07584,-5.17084 1.43971,-1.03414 3.19374,-1.55122 5.26209,-1.55125 0.56776,3e-5 1.11527,0.0507 1.64251,0.15208 0.5272,0.0811 1.05442,0.21295 1.58167,0.39542 l -1.58167,4.28876 c -0.54752,-0.18248 -1.06461,-0.31428 -1.55125,-0.39542 -0.48669,-0.10136 -0.95308,-0.15206 -1.39917,-0.15208 -2.51447,2e-5 -4.4003,0.91252 -5.65752,2.7375 -1.25723,1.80475 -1.88584,4.53211 -1.88583,8.1821 l 0,13.56586 -4.7146,0"
                 style="font-family:Futura Bk BT;-inkscape-font-specification:Futura Bk BT;fill:#4d8ad3;fill-opacity:0.70980394"
                 id="path7182" />
              <path
                 d="m 235.5267,844.1864 c -0.16225,-2.4536 -0.9835,-4.33943 -2.46375,-5.65751 -1.46003,-1.33832 -3.46753,-2.00748 -6.02252,-2.00751 -2.31168,3e-5 -4.23807,0.69961 -5.77917,2.09876 -1.54113,1.37891 -2.43335,3.23433 -2.67668,5.56626 l 16.94212,0 m 5.11001,3.86292 -22.05213,0 0,0.42584 c 0,2.98085 0.85166,5.3939 2.55501,7.23918 1.70332,1.82501 3.92374,2.73751 6.66126,2.7375 1.86554,1e-5 3.5486,-0.4968 5.04918,-1.49042 1.50053,-1.01388 2.82873,-2.53472 3.98459,-4.56251 l 3.61959,2.43334 c -1.3992,2.51446 -3.18364,4.41043 -5.35334,5.68793 -2.16975,1.2775 -4.6842,1.91625 -7.54335,1.91626 -4.23808,-10e-6 -7.66503,-1.39917 -10.28086,-4.19751 -2.61584,-2.79834 -3.92376,-6.46862 -3.92375,-11.01086 -1e-5,-4.35971 1.29777,-7.9286 3.89334,-10.70669 2.59555,-2.77803 5.93125,-4.16706 10.0071,-4.16709 4.11638,3e-5 7.37097,1.31809 9.76377,3.95418 2.41303,2.63613 3.61956,6.23544 3.61959,10.79793 l 0,0.94292"
                 style="font-family:Futura Bk BT;-inkscape-font-specification:Futura Bk BT;fill:#4d8ad3;fill-opacity:0.70980394"
                 id="path7184" />
            </g>
          </g>
        </g>
        <g
           transform="matrix(1.1748883,0,0,1.1748883,84.41517,188.06653)"
           id="g5209-8-9-8-2">
          <path
             style="color:#000000;fill:url(#linearGradient5034);fill-opacity:1;fill-rule:nonzero;stroke:none;stroke-width:1.79999995;marker:none;visibility:visible;display:inline;overflow:visible;enable-background:accumulate"
             d="m -164.125,522.2935 c -13.07468,1.65342 -23.1875,12.82028 -23.1875,26.34375 0,13.52347 10.11282,24.69033 23.1875,26.34375 l 0,-52.6875 z"
             id="path4965-0-0-6-6"
             inkscape:connector-curvature="0" />
          <path
             style="color:#000000;fill:#7f7f7f;fill-opacity:1;fill-rule:nonzero;stroke:none;stroke-width:1.41600001;marker:none;visibility:visible;display:inline;overflow:visible;enable-background:accumulate"
             d="m -164.125,513.38725 c -17.9906,1.68347 -32.0625,16.81817 -32.0625,35.25 0,18.43176 14.072,33.56643 32.0625,35.25 l 0,-5.5625 c -14.91844,-1.67214 -26.53125,-14.3209 -26.53125,-29.6875 0,-15.3666 11.61281,-28.01536 26.53125,-29.6875 l 0,-5.5625 z"
             id="path5128-4-5-2-9"
             inkscape:connector-curvature="0" />
          <rect
             style="color:#000000;fill:#000000;fill-opacity:1;fill-rule:nonzero;stroke:none;stroke-width:1.41600001;marker:none;visibility:visible;display:inline;overflow:visible;enable-background:accumulate"
             id="rect5047-2-9-0-7"
             width="0.89999998"
             height="96.300003"
             x="-161.23515"
             y="500.48724" />
        </g>
      </g>
    </g>
  </g>
</svg>
